<svg width="150" height="150" viewBox="0 0 150 150" xmlns="http://www.w3.org/2000/svg">
  <!-- Mushroom house -->
  <path d="M70 40 Q75 25 80 40 L100 100 Q105 110 75 110 Q45 110 50 100 Z" fill="#d1b48c" stroke="#8b4513" stroke-width="2" />
  
  <!-- Mushroom cap -->
  <ellipse cx="75" cy="40" rx="30" ry="15" fill="#e57373" stroke="#c62828" stroke-width="2" />
  
  <!-- Door -->
  <rect x="70" y="85" width="10" height="15" rx="2" fill="#8b4513" stroke="#5d4037" stroke-width="1" />
  
  <!-- Windows -->
  <circle cx="60" cy="70" r="5" fill="#b3e5fc" stroke="#0288d1" stroke-width="1" />
  <circle cx="90" cy="70" r="5" fill="#b3e5fc" stroke="#0288d1" stroke-width="1" />
  
  <!-- Fairy princess -->
  <circle cx="75" cy="115" r="8" fill="#ffecb3" /> <!-- head -->
  <path d="M75 123 L75 135" stroke="#ffecb3" stroke-width="4" /> <!-- body -->
  <path d="M75 127 L68 133 M75 127 L82 133" stroke="#ffecb3" stroke-width="2" /> <!-- arms -->
  <path d="M75 135 L70 145 M75 135 L80 145" stroke="#ffecb3" stroke-width="2" /> <!-- legs -->
  <path d="M67 115 L83 115" stroke="#f06292" stroke-width="2" /> <!-- crown -->
  <path d="M75 115 L65 125 M75 115 L85 125" stroke="#f8bbd0" stroke-width="1" fill="none" /> <!-- wings -->
  
  <!-- Book title -->
  <text x="75" y="145" font-family="Arial" font-size="10" text-anchor="middle" fill="#333">Story Book 2</text>
</svg>